<svg xmlns="http://www.w3.org/2000/svg" viewBox="0 0 120 120" role="img" aria-label="Khatun emblem">
  <!--
    Placeholder emblem: a Mongolian queen in profile within a traditional
    headdress, rendered in deep wine. Replace with the real emblem.svg.
  -->
  <defs>
    <linearGradient id="khatunGold" x1="0" y1="0" x2="1" y2="1">
      <stop offset="0" stop-color="#E2C788" />
      <stop offset="0.5" stop-color="#C7A35A" />
      <stop offset="1" stop-color="#A6823C" />
    </linearGradient>
  </defs>
  <circle cx="60" cy="60" r="58" fill="none" stroke="url(#khatunGold)" stroke-width="1.4" />
  <circle cx="60" cy="60" r="52" fill="#7A0F1C" />
  <g fill="#F5EFE8">
    <!-- headdress crown -->
    <path d="M36 44 C40 30 80 30 84 44 L80 46 C76 36 44 36 40 46 Z" />
    <!-- ceremonial side ornaments -->
    <path d="M34 50 q-9 6 -7 20 q5 -3 9 -3 z" />
    <path d="M86 50 q9 6 7 20 q-5 -3 -9 -3 z" />
    <!-- face profile -->
    <path d="M52 46
      c-9 2 -14 11 -14 21
      c0 9 4 16 11 20
      c2 6 7 9 13 9
      c2 0 4 -1 4 -3
      c0 -2 -2 -3 -2 -6
      c4 -1 7 -3 7 -6
      c0 -2 -2 -3 -4 -4
      c1 -4 1 -8 0 -12
      c-1 -10 -6 -17 -15 -19 Z" />
    <!-- crown jewel -->
    <circle cx="60" cy="40" r="3.4" fill="url(#khatunGold)" />
  </g>
</svg>
